<svg width="605.766" height="605.766" style="overflow: visible;" version="1.1" xmlns="http://www.w3.org/2000/svg"><g transform="translate(80,30)"><line x1="20.2883" y1="0" x2="12.036304964285243" y2="1.7540156917096208" class="line" transform="translate(182.5947, 182.5947)" style="stroke: grey; stroke-opacity: 0.75; stroke-width: 0.3px; stroke-dasharray: 0;"></line><line x1="12.036304964285243" y1="1.7540156917096208" x2="5.2111548372669825" y2="6.712777519009577" class="line" transform="translate(182.5947, 182.5947)" style="stroke: grey; stroke-opacity: 0.75; stroke-width: 0.3px; stroke-dasharray: 0;"></line><line x1="5.2111548372669825" y1="6.712777519009577" x2="0.9929800804490366" y2="14.018870513022753" class="line" transform="translate(182.5947, 182.5947)" style="stroke: grey; stroke-opacity: 0.75; stroke-width: 0.3px; stroke-dasharray: 0;"></line><line x1="0.9929800804490366" y1="14.018870513022753" x2="0.11114143019985875" y2="22.40900482131313" class="line" transform="translate(182.5947, 182.5947)" style="stroke: grey; stroke-opacity: 0.75; stroke-width: 0.3px; stroke-dasharray: 0;"></line><line x1="0.11114143019985875" y1="22.40900482131313" x2="2.718116800400172" y2="30.432449999999996" class="line" transform="translate(182.5947, 182.5947)" style="stroke: grey; stroke-opacity: 0.75; stroke-width: 0.3px; stroke-dasharray: 0;"></line><line x1="2.718116800400172" y1="30.432449999999996" x2="8.363136465914614" y2="36.70187948697725" class="line" transform="translate(182.5947, 182.5947)" style="stroke: grey; stroke-opacity: 0.75; stroke-width: 0.3px; stroke-dasharray: 0;"></line><line x1="8.363136465914614" y1="36.70187948697725" x2="16.070125243182055" y2="40.13325196796767" class="line" transform="translate(182.5947, 182.5947)" style="stroke: grey; stroke-opacity: 0.75; stroke-width: 0.3px; stroke-dasharray: 0;"></line><line x1="16.070125243182055" y1="40.13325196796767" x2="24.506474756817944" y2="40.13325196796767" class="line" transform="translate(182.5947, 182.5947)" style="stroke: grey; stroke-opacity: 0.75; stroke-width: 0.3px; stroke-dasharray: 0;"></line><line x1="24.506474756817944" y1="40.13325196796767" x2="32.21346353408538" y2="36.70187948697725" class="line" transform="translate(182.5947, 182.5947)" style="stroke: grey; stroke-opacity: 0.75; stroke-width: 0.3px; stroke-dasharray: 0;"></line><line x1="32.21346353408538" y1="36.70187948697725" x2="37.85848319959982" y2="30.43245000000001" class="line" transform="translate(182.5947, 182.5947)" style="stroke: grey; stroke-opacity: 0.75; stroke-width: 0.3px; stroke-dasharray: 0;"></line><line x1="37.85848319959982" y1="30.43245000000001" x2="40.46545856980014" y2="22.409004821313147" class="line" transform="translate(182.5947, 182.5947)" style="stroke: grey; stroke-opacity: 0.75; stroke-width: 0.3px; stroke-dasharray: 0;"></line><line x1="40.46545856980014" y1="22.409004821313147" x2="39.58361991955096" y2="14.018870513022758" class="line" transform="translate(182.5947, 182.5947)" style="stroke: grey; stroke-opacity: 0.75; stroke-width: 0.3px; stroke-dasharray: 0;"></line><line x1="39.58361991955096" y1="14.018870513022758" x2="35.36544516273301" y2="6.712777519009572" class="line" transform="translate(182.5947, 182.5947)" style="stroke: grey; stroke-opacity: 0.75; stroke-width: 0.3px; stroke-dasharray: 0;"></line><line x1="35.36544516273301" y1="6.712777519009572" x2="28.540295035714756" y2="1.7540156917096186" class="line" transform="translate(182.5947, 182.5947)" style="stroke: grey; stroke-opacity: 0.75; stroke-width: 0.3px; stroke-dasharray: 0;"></line><line x1="28.540295035714756" y1="1.7540156917096186" x2="20.28830000000002" y2="0" class="line" transform="translate(182.5947, 182.5947)" style="stroke: grey; stroke-opacity: 0.75; stroke-width: 0.3px; stroke-dasharray: 0;"></line><line x1="40.5766" y1="0" x2="24.072609928570486" y2="3.5080313834192416" class="line" transform="translate(162.3064, 162.3064)" style="stroke: grey; stroke-opacity: 0.75; stroke-width: 0.3px; stroke-dasharray: 0;"></line><line x1="24.072609928570486" y1="3.5080313834192416" x2="10.422309674533965" y2="13.425555038019153" class="line" transform="translate(162.3064, 162.3064)" style="stroke: grey; stroke-opacity: 0.75; stroke-width: 0.3px; stroke-dasharray: 0;"></line><line x1="10.422309674533965" y1="13.425555038019153" x2="1.9859601608980733" y2="28.037741026045506" class="line" transform="translate(162.3064, 162.3064)" style="stroke: grey; stroke-opacity: 0.75; stroke-width: 0.3px; stroke-dasharray: 0;"></line><line x1="1.9859601608980733" y1="28.037741026045506" x2="0.2222828603997175" y2="44.81800964262626" class="line" transform="translate(162.3064, 162.3064)" style="stroke: grey; stroke-opacity: 0.75; stroke-width: 0.3px; stroke-dasharray: 0;"></line><line x1="0.2222828603997175" y1="44.81800964262626" x2="5.436233600800344" y2="60.86489999999999" class="line" transform="translate(162.3064, 162.3064)" style="stroke: grey; stroke-opacity: 0.75; stroke-width: 0.3px; stroke-dasharray: 0;"></line><line x1="5.436233600800344" y1="60.86489999999999" x2="16.72627293182923" y2="73.4037589739545" class="line" transform="translate(162.3064, 162.3064)" style="stroke: grey; stroke-opacity: 0.75; stroke-width: 0.3px; stroke-dasharray: 0;"></line><line x1="16.72627293182923" y1="73.4037589739545" x2="32.14025048636411" y2="80.26650393593533" class="line" transform="translate(162.3064, 162.3064)" style="stroke: grey; stroke-opacity: 0.75; stroke-width: 0.3px; stroke-dasharray: 0;"></line><line x1="32.14025048636411" y1="80.26650393593533" x2="49.01294951363589" y2="80.26650393593533" class="line" transform="translate(162.3064, 162.3064)" style="stroke: grey; stroke-opacity: 0.75; stroke-width: 0.3px; stroke-dasharray: 0;"></line><line x1="49.01294951363589" y1="80.26650393593533" x2="64.42692706817076" y2="73.4037589739545" class="line" transform="translate(162.3064, 162.3064)" style="stroke: grey; stroke-opacity: 0.75; stroke-width: 0.3px; stroke-dasharray: 0;"></line><line x1="64.42692706817076" y1="73.4037589739545" x2="75.71696639919963" y2="60.86490000000002" class="line" transform="translate(162.3064, 162.3064)" style="stroke: grey; stroke-opacity: 0.75; stroke-width: 0.3px; stroke-dasharray: 0;"></line><line x1="75.71696639919963" y1="60.86490000000002" x2="80.93091713960028" y2="44.81800964262629" class="line" transform="translate(162.3064, 162.3064)" style="stroke: grey; stroke-opacity: 0.75; stroke-width: 0.3px; stroke-dasharray: 0;"></line><line x1="80.93091713960028" y1="44.81800964262629" x2="79.16723983910192" y2="28.037741026045516" class="line" transform="translate(162.3064, 162.3064)" style="stroke: grey; stroke-opacity: 0.75; stroke-width: 0.3px; stroke-dasharray: 0;"></line><line x1="79.16723983910192" y1="28.037741026045516" x2="70.73089032546602" y2="13.425555038019144" class="line" transform="translate(162.3064, 162.3064)" style="stroke: grey; stroke-opacity: 0.75; stroke-width: 0.3px; stroke-dasharray: 0;"></line><line x1="70.73089032546602" y1="13.425555038019144" x2="57.08059007142951" y2="3.508031383419237" class="line" transform="translate(162.3064, 162.3064)" style="stroke: grey; stroke-opacity: 0.75; stroke-width: 0.3px; stroke-dasharray: 0;"></line><line x1="57.08059007142951" y1="3.508031383419237" x2="40.57660000000004" y2="0" class="line" transform="translate(162.3064, 162.3064)" style="stroke: grey; stroke-opacity: 0.75; stroke-width: 0.3px; stroke-dasharray: 0;"></line><line x1="60.86489999999999" y1="0" x2="36.10891489285573" y2="5.262047075128862" class="line" transform="translate(142.0181, 142.0181)" style="stroke: grey; stroke-opacity: 0.75; stroke-width: 0.3px; stroke-dasharray: 0;"></line><line x1="36.10891489285573" y1="5.262047075128862" x2="15.633464511800945" y2="20.138332557028725" class="line" transform="translate(142.0181, 142.0181)" style="stroke: grey; stroke-opacity: 0.75; stroke-width: 0.3px; stroke-dasharray: 0;"></line><line x1="15.633464511800945" y1="20.138332557028725" x2="2.9789402413471096" y2="42.05661153906826" class="line" transform="translate(142.0181, 142.0181)" style="stroke: grey; stroke-opacity: 0.75; stroke-width: 0.3px; stroke-dasharray: 0;"></line><line x1="2.9789402413471096" y1="42.05661153906826" x2="0.33342429059957623" y2="67.22701446393938" class="line" transform="translate(142.0181, 142.0181)" style="stroke: grey; stroke-opacity: 0.75; stroke-width: 0.3px; stroke-dasharray: 0;"></line><line x1="0.33342429059957623" y1="67.22701446393938" x2="8.154350401200515" y2="91.29734999999998" class="line" transform="translate(142.0181, 142.0181)" style="stroke: grey; stroke-opacity: 0.75; stroke-width: 0.3px; stroke-dasharray: 0;"></line><line x1="8.154350401200515" y1="91.29734999999998" x2="25.089409397743843" y2="110.10563846093173" class="line" transform="translate(142.0181, 142.0181)" style="stroke: grey; stroke-opacity: 0.75; stroke-width: 0.3px; stroke-dasharray: 0;"></line><line x1="25.089409397743843" y1="110.10563846093173" x2="48.21037572954616" y2="120.399755903903" class="line" transform="translate(142.0181, 142.0181)" style="stroke: grey; stroke-opacity: 0.75; stroke-width: 0.3px; stroke-dasharray: 0;"></line><line x1="48.21037572954616" y1="120.399755903903" x2="73.51942427045383" y2="120.399755903903" class="line" transform="translate(142.0181, 142.0181)" style="stroke: grey; stroke-opacity: 0.75; stroke-width: 0.3px; stroke-dasharray: 0;"></line><line x1="73.51942427045383" y1="120.399755903903" x2="96.64039060225612" y2="110.10563846093173" class="line" transform="translate(142.0181, 142.0181)" style="stroke: grey; stroke-opacity: 0.75; stroke-width: 0.3px; stroke-dasharray: 0;"></line><line x1="96.64039060225612" y1="110.10563846093173" x2="113.57544959879945" y2="91.29735000000001" class="line" transform="translate(142.0181, 142.0181)" style="stroke: grey; stroke-opacity: 0.75; stroke-width: 0.3px; stroke-dasharray: 0;"></line><line x1="113.57544959879945" y1="91.29735000000001" x2="121.3963757094004" y2="67.22701446393944" class="line" transform="translate(142.0181, 142.0181)" style="stroke: grey; stroke-opacity: 0.75; stroke-width: 0.3px; stroke-dasharray: 0;"></line><line x1="121.3963757094004" y1="67.22701446393944" x2="118.75085975865288" y2="42.05661153906827" class="line" transform="translate(142.0181, 142.0181)" style="stroke: grey; stroke-opacity: 0.75; stroke-width: 0.3px; stroke-dasharray: 0;"></line><line x1="118.75085975865288" y1="42.05661153906827" x2="106.09633548819903" y2="20.13833255702871" class="line" transform="translate(142.0181, 142.0181)" style="stroke: grey; stroke-opacity: 0.75; stroke-width: 0.3px; stroke-dasharray: 0;"></line><line x1="106.09633548819903" y1="20.13833255702871" x2="85.62088510714426" y2="5.262047075128855" class="line" transform="translate(142.0181, 142.0181)" style="stroke: grey; stroke-opacity: 0.75; stroke-width: 0.3px; stroke-dasharray: 0;"></line><line x1="85.62088510714426" y1="5.262047075128855" x2="60.86490000000006" y2="0" class="line" transform="translate(142.0181, 142.0181)" style="stroke: grey; stroke-opacity: 0.75; stroke-width: 0.3px; stroke-dasharray: 0;"></line><line x1="81.1532" y1="0" x2="48.14521985714097" y2="7.016062766838483" class="line" transform="translate(121.72979999999998, 121.72979999999998)" style="stroke: grey; stroke-opacity: 0.75; stroke-width: 0.3px; stroke-dasharray: 0;"></line><line x1="48.14521985714097" y1="7.016062766838483" x2="20.84461934906793" y2="26.851110076038307" class="line" transform="translate(121.72979999999998, 121.72979999999998)" style="stroke: grey; stroke-opacity: 0.75; stroke-width: 0.3px; stroke-dasharray: 0;"></line><line x1="20.84461934906793" y1="26.851110076038307" x2="3.9719203217961465" y2="56.07548205209101" class="line" transform="translate(121.72979999999998, 121.72979999999998)" style="stroke: grey; stroke-opacity: 0.75; stroke-width: 0.3px; stroke-dasharray: 0;"></line><line x1="3.9719203217961465" y1="56.07548205209101" x2="0.444565720799435" y2="89.63601928525252" class="line" transform="translate(121.72979999999998, 121.72979999999998)" style="stroke: grey; stroke-opacity: 0.75; stroke-width: 0.3px; stroke-dasharray: 0;"></line><line x1="0.444565720799435" y1="89.63601928525252" x2="10.872467201600688" y2="121.72979999999998" class="line" transform="translate(121.72979999999998, 121.72979999999998)" style="stroke: grey; stroke-opacity: 0.75; stroke-width: 0.3px; stroke-dasharray: 0;"></line><line x1="10.872467201600688" y1="121.72979999999998" x2="33.45254586365846" y2="146.807517947909" class="line" transform="translate(121.72979999999998, 121.72979999999998)" style="stroke: grey; stroke-opacity: 0.75; stroke-width: 0.3px; stroke-dasharray: 0;"></line><line x1="33.45254586365846" y1="146.807517947909" x2="64.28050097272822" y2="160.53300787187067" class="line" transform="translate(121.72979999999998, 121.72979999999998)" style="stroke: grey; stroke-opacity: 0.75; stroke-width: 0.3px; stroke-dasharray: 0;"></line><line x1="64.28050097272822" y1="160.53300787187067" x2="98.02589902727178" y2="160.53300787187067" class="line" transform="translate(121.72979999999998, 121.72979999999998)" style="stroke: grey; stroke-opacity: 0.75; stroke-width: 0.3px; stroke-dasharray: 0;"></line><line x1="98.02589902727178" y1="160.53300787187067" x2="128.8538541363415" y2="146.807517947909" class="line" transform="translate(121.72979999999998, 121.72979999999998)" style="stroke: grey; stroke-opacity: 0.75; stroke-width: 0.3px; stroke-dasharray: 0;"></line><line x1="128.8538541363415" y1="146.807517947909" x2="151.43393279839927" y2="121.72980000000004" class="line" transform="translate(121.72979999999998, 121.72979999999998)" style="stroke: grey; stroke-opacity: 0.75; stroke-width: 0.3px; stroke-dasharray: 0;"></line><line x1="151.43393279839927" y1="121.72980000000004" x2="161.86183427920056" y2="89.63601928525259" class="line" transform="translate(121.72979999999998, 121.72979999999998)" style="stroke: grey; stroke-opacity: 0.75; stroke-width: 0.3px; stroke-dasharray: 0;"></line><line x1="161.86183427920056" y1="89.63601928525259" x2="158.33447967820385" y2="56.07548205209103" class="line" transform="translate(121.72979999999998, 121.72979999999998)" style="stroke: grey; stroke-opacity: 0.75; stroke-width: 0.3px; stroke-dasharray: 0;"></line><line x1="158.33447967820385" y1="56.07548205209103" x2="141.46178065093204" y2="26.85111007603829" class="line" transform="translate(121.72979999999998, 121.72979999999998)" style="stroke: grey; stroke-opacity: 0.75; stroke-width: 0.3px; stroke-dasharray: 0;"></line><line x1="141.46178065093204" y1="26.85111007603829" x2="114.16118014285902" y2="7.016062766838474" class="line" transform="translate(121.72979999999998, 121.72979999999998)" style="stroke: grey; stroke-opacity: 0.75; stroke-width: 0.3px; stroke-dasharray: 0;"></line><line x1="114.16118014285902" y1="7.016062766838474" x2="81.15320000000008" y2="0" class="line" transform="translate(121.72979999999998, 121.72979999999998)" style="stroke: grey; stroke-opacity: 0.75; stroke-width: 0.3px; stroke-dasharray: 0;"></line><line x1="101.44149999999999" y1="0" x2="60.181524821426216" y2="8.770078458548104" class="line" transform="translate(101.44149999999999, 101.44149999999999)" style="stroke: grey; stroke-opacity: 0.75; stroke-width: 0.3px; stroke-dasharray: 0;"></line><line x1="60.181524821426216" y1="8.770078458548104" x2="26.055774186334908" y2="33.56388759504788" class="line" transform="translate(101.44149999999999, 101.44149999999999)" style="stroke: grey; stroke-opacity: 0.75; stroke-width: 0.3px; stroke-dasharray: 0;"></line><line x1="26.055774186334908" y1="33.56388759504788" x2="4.964900402245183" y2="70.09435256511377" class="line" transform="translate(101.44149999999999, 101.44149999999999)" style="stroke: grey; stroke-opacity: 0.75; stroke-width: 0.3px; stroke-dasharray: 0;"></line><line x1="4.964900402245183" y1="70.09435256511377" x2="0.5557071509992938" y2="112.04502410656565" class="line" transform="translate(101.44149999999999, 101.44149999999999)" style="stroke: grey; stroke-opacity: 0.75; stroke-width: 0.3px; stroke-dasharray: 0;"></line><line x1="0.5557071509992938" y1="112.04502410656565" x2="13.59058400200086" y2="152.16224999999997" class="line" transform="translate(101.44149999999999, 101.44149999999999)" style="stroke: grey; stroke-opacity: 0.75; stroke-width: 0.3px; stroke-dasharray: 0;"></line><line x1="13.59058400200086" y1="152.16224999999997" x2="41.81568232957307" y2="183.5093974348862" class="line" transform="translate(101.44149999999999, 101.44149999999999)" style="stroke: grey; stroke-opacity: 0.75; stroke-width: 0.3px; stroke-dasharray: 0;"></line><line x1="41.81568232957307" y1="183.5093974348862" x2="80.35062621591027" y2="200.66625983983832" class="line" transform="translate(101.44149999999999, 101.44149999999999)" style="stroke: grey; stroke-opacity: 0.75; stroke-width: 0.3px; stroke-dasharray: 0;"></line><line x1="80.35062621591027" y1="200.66625983983832" x2="122.5323737840897" y2="200.66625983983832" class="line" transform="translate(101.44149999999999, 101.44149999999999)" style="stroke: grey; stroke-opacity: 0.75; stroke-width: 0.3px; stroke-dasharray: 0;"></line><line x1="122.5323737840897" y1="200.66625983983832" x2="161.0673176704269" y2="183.5093974348862" class="line" transform="translate(101.44149999999999, 101.44149999999999)" style="stroke: grey; stroke-opacity: 0.75; stroke-width: 0.3px; stroke-dasharray: 0;"></line><line x1="161.0673176704269" y1="183.5093974348862" x2="189.2924159979991" y2="152.16225000000003" class="line" transform="translate(101.44149999999999, 101.44149999999999)" style="stroke: grey; stroke-opacity: 0.75; stroke-width: 0.3px; stroke-dasharray: 0;"></line><line x1="189.2924159979991" y1="152.16225000000003" x2="202.32729284900068" y2="112.04502410656573" class="line" transform="translate(101.44149999999999, 101.44149999999999)" style="stroke: grey; stroke-opacity: 0.75; stroke-width: 0.3px; stroke-dasharray: 0;"></line><line x1="202.32729284900068" y1="112.04502410656573" x2="197.9180995977548" y2="70.09435256511378" class="line" transform="translate(101.44149999999999, 101.44149999999999)" style="stroke: grey; stroke-opacity: 0.75; stroke-width: 0.3px; stroke-dasharray: 0;"></line><line x1="197.9180995977548" y1="70.09435256511378" x2="176.82722581366505" y2="33.56388759504786" class="line" transform="translate(101.44149999999999, 101.44149999999999)" style="stroke: grey; stroke-opacity: 0.75; stroke-width: 0.3px; stroke-dasharray: 0;"></line><line x1="176.82722581366505" y1="33.56388759504786" x2="142.70147517857376" y2="8.770078458548092" class="line" transform="translate(101.44149999999999, 101.44149999999999)" style="stroke: grey; stroke-opacity: 0.75; stroke-width: 0.3px; stroke-dasharray: 0;"></line><line x1="142.70147517857376" y1="8.770078458548092" x2="101.4415000000001" y2="0" class="line" transform="translate(101.44149999999999, 101.44149999999999)" style="stroke: grey; stroke-opacity: 0.75; stroke-width: 0.3px; stroke-dasharray: 0;"></line><line x1="121.72979999999998" y1="0" x2="72.21782978571146" y2="10.524094150257724" class="line" transform="translate(81.1532, 81.1532)" style="stroke: grey; stroke-opacity: 0.75; stroke-width: 0.3px; stroke-dasharray: 0;"></line><line x1="72.21782978571146" y1="10.524094150257724" x2="31.26692902360189" y2="40.27666511405745" class="line" transform="translate(81.1532, 81.1532)" style="stroke: grey; stroke-opacity: 0.75; stroke-width: 0.3px; stroke-dasharray: 0;"></line><line x1="31.26692902360189" y1="40.27666511405745" x2="5.957880482694219" y2="84.11322307813651" class="line" transform="translate(81.1532, 81.1532)" style="stroke: grey; stroke-opacity: 0.75; stroke-width: 0.3px; stroke-dasharray: 0;"></line><line x1="5.957880482694219" y1="84.11322307813651" x2="0.6668485811991525" y2="134.45402892787877" class="line" transform="translate(81.1532, 81.1532)" style="stroke: grey; stroke-opacity: 0.75; stroke-width: 0.3px; stroke-dasharray: 0;"></line><line x1="0.6668485811991525" y1="134.45402892787877" x2="16.30870080240103" y2="182.59469999999996" class="line" transform="translate(81.1532, 81.1532)" style="stroke: grey; stroke-opacity: 0.75; stroke-width: 0.3px; stroke-dasharray: 0;"></line><line x1="16.30870080240103" y1="182.59469999999996" x2="50.178818795487686" y2="220.21127692186346" class="line" transform="translate(81.1532, 81.1532)" style="stroke: grey; stroke-opacity: 0.75; stroke-width: 0.3px; stroke-dasharray: 0;"></line><line x1="50.178818795487686" y1="220.21127692186346" x2="96.42075145909232" y2="240.799511807806" class="line" transform="translate(81.1532, 81.1532)" style="stroke: grey; stroke-opacity: 0.75; stroke-width: 0.3px; stroke-dasharray: 0;"></line><line x1="96.42075145909232" y1="240.799511807806" x2="147.03884854090765" y2="240.799511807806" class="line" transform="translate(81.1532, 81.1532)" style="stroke: grey; stroke-opacity: 0.75; stroke-width: 0.3px; stroke-dasharray: 0;"></line><line x1="147.03884854090765" y1="240.799511807806" x2="193.28078120451224" y2="220.21127692186346" class="line" transform="translate(81.1532, 81.1532)" style="stroke: grey; stroke-opacity: 0.75; stroke-width: 0.3px; stroke-dasharray: 0;"></line><line x1="193.28078120451224" y1="220.21127692186346" x2="227.1508991975989" y2="182.59470000000002" class="line" transform="translate(81.1532, 81.1532)" style="stroke: grey; stroke-opacity: 0.75; stroke-width: 0.3px; stroke-dasharray: 0;"></line><line x1="227.1508991975989" y1="182.59470000000002" x2="242.7927514188008" y2="134.45402892787888" class="line" transform="translate(81.1532, 81.1532)" style="stroke: grey; stroke-opacity: 0.75; stroke-width: 0.3px; stroke-dasharray: 0;"></line><line x1="242.7927514188008" y1="134.45402892787888" x2="237.50171951730576" y2="84.11322307813654" class="line" transform="translate(81.1532, 81.1532)" style="stroke: grey; stroke-opacity: 0.75; stroke-width: 0.3px; stroke-dasharray: 0;"></line><line x1="237.50171951730576" y1="84.11322307813654" x2="212.19267097639806" y2="40.27666511405742" class="line" transform="translate(81.1532, 81.1532)" style="stroke: grey; stroke-opacity: 0.75; stroke-width: 0.3px; stroke-dasharray: 0;"></line><line x1="212.19267097639806" y1="40.27666511405742" x2="171.24177021428852" y2="10.52409415025771" class="line" transform="translate(81.1532, 81.1532)" style="stroke: grey; stroke-opacity: 0.75; stroke-width: 0.3px; stroke-dasharray: 0;"></line><line x1="171.24177021428852" y1="10.52409415025771" x2="121.72980000000013" y2="0" class="line" transform="translate(81.1532, 81.1532)" style="stroke: grey; stroke-opacity: 0.75; stroke-width: 0.3px; stroke-dasharray: 0;"></line><line x1="142.01809999999998" y1="0" x2="84.2541347499967" y2="12.278109841967344" class="line" transform="translate(60.864900000000006, 60.864900000000006)" style="stroke: grey; stroke-opacity: 0.75; stroke-width: 0.3px; stroke-dasharray: 0;"></line><line x1="84.2541347499967" y1="12.278109841967344" x2="36.47808386086887" y2="46.98944263306703" class="line" transform="translate(60.864900000000006, 60.864900000000006)" style="stroke: grey; stroke-opacity: 0.75; stroke-width: 0.3px; stroke-dasharray: 0;"></line><line x1="36.47808386086887" y1="46.98944263306703" x2="6.950860563143255" y2="98.13209359115926" class="line" transform="translate(60.864900000000006, 60.864900000000006)" style="stroke: grey; stroke-opacity: 0.75; stroke-width: 0.3px; stroke-dasharray: 0;"></line><line x1="6.950860563143255" y1="98.13209359115926" x2="0.7779900113990111" y2="156.86303374919189" class="line" transform="translate(60.864900000000006, 60.864900000000006)" style="stroke: grey; stroke-opacity: 0.75; stroke-width: 0.3px; stroke-dasharray: 0;"></line><line x1="0.7779900113990111" y1="156.86303374919189" x2="19.026817602801202" y2="213.02714999999992" class="line" transform="translate(60.864900000000006, 60.864900000000006)" style="stroke: grey; stroke-opacity: 0.75; stroke-width: 0.3px; stroke-dasharray: 0;"></line><line x1="19.026817602801202" y1="213.02714999999992" x2="58.54195526140229" y2="256.9131564088407" class="line" transform="translate(60.864900000000006, 60.864900000000006)" style="stroke: grey; stroke-opacity: 0.75; stroke-width: 0.3px; stroke-dasharray: 0;"></line><line x1="58.54195526140229" y1="256.9131564088407" x2="112.49087670227436" y2="280.93276377577365" class="line" transform="translate(60.864900000000006, 60.864900000000006)" style="stroke: grey; stroke-opacity: 0.75; stroke-width: 0.3px; stroke-dasharray: 0;"></line><line x1="112.49087670227436" y1="280.93276377577365" x2="171.5453232977256" y2="280.93276377577365" class="line" transform="translate(60.864900000000006, 60.864900000000006)" style="stroke: grey; stroke-opacity: 0.75; stroke-width: 0.3px; stroke-dasharray: 0;"></line><line x1="171.5453232977256" y1="280.93276377577365" x2="225.49424473859762" y2="256.9131564088407" class="line" transform="translate(60.864900000000006, 60.864900000000006)" style="stroke: grey; stroke-opacity: 0.75; stroke-width: 0.3px; stroke-dasharray: 0;"></line><line x1="225.49424473859762" y1="256.9131564088407" x2="265.0093823971987" y2="213.02715000000003" class="line" transform="translate(60.864900000000006, 60.864900000000006)" style="stroke: grey; stroke-opacity: 0.75; stroke-width: 0.3px; stroke-dasharray: 0;"></line><line x1="265.0093823971987" y1="213.02715000000003" x2="283.2582099886009" y2="156.863033749192" class="line" transform="translate(60.864900000000006, 60.864900000000006)" style="stroke: grey; stroke-opacity: 0.75; stroke-width: 0.3px; stroke-dasharray: 0;"></line><line x1="283.2582099886009" y1="156.863033749192" x2="277.0853394368567" y2="98.13209359115929" class="line" transform="translate(60.864900000000006, 60.864900000000006)" style="stroke: grey; stroke-opacity: 0.75; stroke-width: 0.3px; stroke-dasharray: 0;"></line><line x1="277.0853394368567" y1="98.13209359115929" x2="247.55811613913104" y2="46.98944263306699" class="line" transform="translate(60.864900000000006, 60.864900000000006)" style="stroke: grey; stroke-opacity: 0.75; stroke-width: 0.3px; stroke-dasharray: 0;"></line><line x1="247.55811613913104" y1="46.98944263306699" x2="199.78206525000326" y2="12.278109841967328" class="line" transform="translate(60.864900000000006, 60.864900000000006)" style="stroke: grey; stroke-opacity: 0.75; stroke-width: 0.3px; stroke-dasharray: 0;"></line><line x1="199.78206525000326" y1="12.278109841967328" x2="142.01810000000015" y2="0" class="line" transform="translate(60.864900000000006, 60.864900000000006)" style="stroke: grey; stroke-opacity: 0.75; stroke-width: 0.3px; stroke-dasharray: 0;"></line><line x1="162.3064" y1="0" x2="96.29043971428194" y2="14.032125533676966" class="line" transform="translate(40.576599999999985, 40.576599999999985)" style="stroke: grey; stroke-opacity: 0.75; stroke-width: 0.3px; stroke-dasharray: 0;"></line><line x1="96.29043971428194" y1="14.032125533676966" x2="41.68923869813586" y2="53.70222015207661" class="line" transform="translate(40.576599999999985, 40.576599999999985)" style="stroke: grey; stroke-opacity: 0.75; stroke-width: 0.3px; stroke-dasharray: 0;"></line><line x1="41.68923869813586" y1="53.70222015207661" x2="7.943840643592293" y2="112.15096410418202" class="line" transform="translate(40.576599999999985, 40.576599999999985)" style="stroke: grey; stroke-opacity: 0.75; stroke-width: 0.3px; stroke-dasharray: 0;"></line><line x1="7.943840643592293" y1="112.15096410418202" x2="0.88913144159887" y2="179.27203857050503" class="line" transform="translate(40.576599999999985, 40.576599999999985)" style="stroke: grey; stroke-opacity: 0.75; stroke-width: 0.3px; stroke-dasharray: 0;"></line><line x1="0.88913144159887" y1="179.27203857050503" x2="21.744934403201377" y2="243.45959999999997" class="line" transform="translate(40.576599999999985, 40.576599999999985)" style="stroke: grey; stroke-opacity: 0.75; stroke-width: 0.3px; stroke-dasharray: 0;"></line><line x1="21.744934403201377" y1="243.45959999999997" x2="66.90509172731691" y2="293.615035895818" class="line" transform="translate(40.576599999999985, 40.576599999999985)" style="stroke: grey; stroke-opacity: 0.75; stroke-width: 0.3px; stroke-dasharray: 0;"></line><line x1="66.90509172731691" y1="293.615035895818" x2="128.56100194545644" y2="321.06601574374133" class="line" transform="translate(40.576599999999985, 40.576599999999985)" style="stroke: grey; stroke-opacity: 0.75; stroke-width: 0.3px; stroke-dasharray: 0;"></line><line x1="128.56100194545644" y1="321.06601574374133" x2="196.05179805454355" y2="321.06601574374133" class="line" transform="translate(40.576599999999985, 40.576599999999985)" style="stroke: grey; stroke-opacity: 0.75; stroke-width: 0.3px; stroke-dasharray: 0;"></line><line x1="196.05179805454355" y1="321.06601574374133" x2="257.707708272683" y2="293.615035895818" class="line" transform="translate(40.576599999999985, 40.576599999999985)" style="stroke: grey; stroke-opacity: 0.75; stroke-width: 0.3px; stroke-dasharray: 0;"></line><line x1="257.707708272683" y1="293.615035895818" x2="302.86786559679854" y2="243.45960000000008" class="line" transform="translate(40.576599999999985, 40.576599999999985)" style="stroke: grey; stroke-opacity: 0.75; stroke-width: 0.3px; stroke-dasharray: 0;"></line><line x1="302.86786559679854" y1="243.45960000000008" x2="323.72366855840113" y2="179.27203857050517" class="line" transform="translate(40.576599999999985, 40.576599999999985)" style="stroke: grey; stroke-opacity: 0.75; stroke-width: 0.3px; stroke-dasharray: 0;"></line><line x1="323.72366855840113" y1="179.27203857050517" x2="316.6689593564077" y2="112.15096410418207" class="line" transform="translate(40.576599999999985, 40.576599999999985)" style="stroke: grey; stroke-opacity: 0.75; stroke-width: 0.3px; stroke-dasharray: 0;"></line><line x1="316.6689593564077" y1="112.15096410418207" x2="282.9235613018641" y2="53.70222015207658" class="line" transform="translate(40.576599999999985, 40.576599999999985)" style="stroke: grey; stroke-opacity: 0.75; stroke-width: 0.3px; stroke-dasharray: 0;"></line><line x1="282.9235613018641" y1="53.70222015207658" x2="228.32236028571805" y2="14.032125533676949" class="line" transform="translate(40.576599999999985, 40.576599999999985)" style="stroke: grey; stroke-opacity: 0.75; stroke-width: 0.3px; stroke-dasharray: 0;"></line><line x1="228.32236028571805" y1="14.032125533676949" x2="162.30640000000017" y2="0" class="line" transform="translate(40.576599999999985, 40.576599999999985)" style="stroke: grey; stroke-opacity: 0.75; stroke-width: 0.3px; stroke-dasharray: 0;"></line><line x1="182.5947" y1="0" x2="108.32674467856718" y2="15.786141225386586" class="line" transform="translate(20.288299999999992, 20.288299999999992)" style="stroke: grey; stroke-opacity: 0.75; stroke-width: 0.3px; stroke-dasharray: 0;"></line><line x1="108.32674467856718" y1="15.786141225386586" x2="46.90039353540284" y2="60.414997671086184" class="line" transform="translate(20.288299999999992, 20.288299999999992)" style="stroke: grey; stroke-opacity: 0.75; stroke-width: 0.3px; stroke-dasharray: 0;"></line><line x1="46.90039353540284" y1="60.414997671086184" x2="8.936820724041329" y2="126.16983461720477" class="line" transform="translate(20.288299999999992, 20.288299999999992)" style="stroke: grey; stroke-opacity: 0.75; stroke-width: 0.3px; stroke-dasharray: 0;"></line><line x1="8.936820724041329" y1="126.16983461720477" x2="1.0002728717987288" y2="201.68104339181815" class="line" transform="translate(20.288299999999992, 20.288299999999992)" style="stroke: grey; stroke-opacity: 0.75; stroke-width: 0.3px; stroke-dasharray: 0;"></line><line x1="1.0002728717987288" y1="201.68104339181815" x2="24.463051203601548" y2="273.8920499999999" class="line" transform="translate(20.288299999999992, 20.288299999999992)" style="stroke: grey; stroke-opacity: 0.75; stroke-width: 0.3px; stroke-dasharray: 0;"></line><line x1="24.463051203601548" y1="273.8920499999999" x2="75.26822819323154" y2="330.3169153827952" class="line" transform="translate(20.288299999999992, 20.288299999999992)" style="stroke: grey; stroke-opacity: 0.75; stroke-width: 0.3px; stroke-dasharray: 0;"></line><line x1="75.26822819323154" y1="330.3169153827952" x2="144.6311271886385" y2="361.199267711709" class="line" transform="translate(20.288299999999992, 20.288299999999992)" style="stroke: grey; stroke-opacity: 0.75; stroke-width: 0.3px; stroke-dasharray: 0;"></line><line x1="144.6311271886385" y1="361.199267711709" x2="220.5582728113615" y2="361.199267711709" class="line" transform="translate(20.288299999999992, 20.288299999999992)" style="stroke: grey; stroke-opacity: 0.75; stroke-width: 0.3px; stroke-dasharray: 0;"></line><line x1="220.5582728113615" y1="361.199267711709" x2="289.92117180676837" y2="330.3169153827952" class="line" transform="translate(20.288299999999992, 20.288299999999992)" style="stroke: grey; stroke-opacity: 0.75; stroke-width: 0.3px; stroke-dasharray: 0;"></line><line x1="289.92117180676837" y1="330.3169153827952" x2="340.7263487963984" y2="273.89205000000004" class="line" transform="translate(20.288299999999992, 20.288299999999992)" style="stroke: grey; stroke-opacity: 0.75; stroke-width: 0.3px; stroke-dasharray: 0;"></line><line x1="340.7263487963984" y1="273.89205000000004" x2="364.1891271282012" y2="201.68104339181832" class="line" transform="translate(20.288299999999992, 20.288299999999992)" style="stroke: grey; stroke-opacity: 0.75; stroke-width: 0.3px; stroke-dasharray: 0;"></line><line x1="364.1891271282012" y1="201.68104339181832" x2="356.2525792759587" y2="126.16983461720481" class="line" transform="translate(20.288299999999992, 20.288299999999992)" style="stroke: grey; stroke-opacity: 0.75; stroke-width: 0.3px; stroke-dasharray: 0;"></line><line x1="356.2525792759587" y1="126.16983461720481" x2="318.2890064645971" y2="60.41499767108614" class="line" transform="translate(20.288299999999992, 20.288299999999992)" style="stroke: grey; stroke-opacity: 0.75; stroke-width: 0.3px; stroke-dasharray: 0;"></line><line x1="318.2890064645971" y1="60.41499767108614" x2="256.8626553214328" y2="15.786141225386567" class="line" transform="translate(20.288299999999992, 20.288299999999992)" style="stroke: grey; stroke-opacity: 0.75; stroke-width: 0.3px; stroke-dasharray: 0;"></line><line x1="256.8626553214328" y1="15.786141225386567" x2="182.5947000000002" y2="0" class="line" transform="translate(20.288299999999992, 20.288299999999992)" style="stroke: grey; stroke-opacity: 0.75; stroke-width: 0.3px; stroke-dasharray: 0;"></line><line x1="202.88299999999998" y1="0" x2="120.36304964285243" y2="17.54015691709621" class="line" transform="translate(0, 0)" style="stroke: grey; stroke-opacity: 0.75; stroke-width: 0.3px; stroke-dasharray: 0;"></line><line x1="120.36304964285243" y1="17.54015691709621" x2="52.111548372669816" y2="67.12777519009576" class="line" transform="translate(0, 0)" style="stroke: grey; stroke-opacity: 0.75; stroke-width: 0.3px; stroke-dasharray: 0;"></line><line x1="52.111548372669816" y1="67.12777519009576" x2="9.929800804490366" y2="140.18870513022753" class="line" transform="translate(0, 0)" style="stroke: grey; stroke-opacity: 0.75; stroke-width: 0.3px; stroke-dasharray: 0;"></line><line x1="9.929800804490366" y1="140.18870513022753" x2="1.1114143019985876" y2="224.0900482131313" class="line" transform="translate(0, 0)" style="stroke: grey; stroke-opacity: 0.75; stroke-width: 0.3px; stroke-dasharray: 0;"></line><line x1="1.1114143019985876" y1="224.0900482131313" x2="27.18116800400172" y2="304.32449999999994" class="line" transform="translate(0, 0)" style="stroke: grey; stroke-opacity: 0.75; stroke-width: 0.3px; stroke-dasharray: 0;"></line><line x1="27.18116800400172" y1="304.32449999999994" x2="83.63136465914614" y2="367.0187948697724" class="line" transform="translate(0, 0)" style="stroke: grey; stroke-opacity: 0.75; stroke-width: 0.3px; stroke-dasharray: 0;"></line><line x1="83.63136465914614" y1="367.0187948697724" x2="160.70125243182054" y2="401.33251967967664" class="line" transform="translate(0, 0)" style="stroke: grey; stroke-opacity: 0.75; stroke-width: 0.3px; stroke-dasharray: 0;"></line><line x1="160.70125243182054" y1="401.33251967967664" x2="245.0647475681794" y2="401.33251967967664" class="line" transform="translate(0, 0)" style="stroke: grey; stroke-opacity: 0.75; stroke-width: 0.3px; stroke-dasharray: 0;"></line><line x1="245.0647475681794" y1="401.33251967967664" x2="322.1346353408538" y2="367.0187948697724" class="line" transform="translate(0, 0)" style="stroke: grey; stroke-opacity: 0.75; stroke-width: 0.3px; stroke-dasharray: 0;"></line><line x1="322.1346353408538" y1="367.0187948697724" x2="378.5848319959982" y2="304.32450000000006" class="line" transform="translate(0, 0)" style="stroke: grey; stroke-opacity: 0.75; stroke-width: 0.3px; stroke-dasharray: 0;"></line><line x1="378.5848319959982" y1="304.32450000000006" x2="404.65458569800137" y2="224.09004821313147" class="line" transform="translate(0, 0)" style="stroke: grey; stroke-opacity: 0.75; stroke-width: 0.3px; stroke-dasharray: 0;"></line><line x1="404.65458569800137" y1="224.09004821313147" x2="395.8361991955096" y2="140.18870513022756" class="line" transform="translate(0, 0)" style="stroke: grey; stroke-opacity: 0.75; stroke-width: 0.3px; stroke-dasharray: 0;"></line><line x1="395.8361991955096" y1="140.18870513022756" x2="353.6544516273301" y2="67.12777519009572" class="line" transform="translate(0, 0)" style="stroke: grey; stroke-opacity: 0.75; stroke-width: 0.3px; stroke-dasharray: 0;"></line><line x1="353.6544516273301" y1="67.12777519009572" x2="285.4029503571475" y2="17.540156917096184" class="line" transform="translate(0, 0)" style="stroke: grey; stroke-opacity: 0.75; stroke-width: 0.3px; stroke-dasharray: 0;"></line><line x1="285.4029503571475" y1="17.540156917096184" x2="202.8830000000002" y2="0" class="line" transform="translate(0, 0)" style="stroke: grey; stroke-opacity: 0.75; stroke-width: 0.3px; stroke-dasharray: 0;"></line><text x="20.2883" y="0" class="legend" transform="translate(187.5947, 182.5947)" fill="#737373" style="font-family: sans-serif; font-size: 10px;">10</text><text x="40.5766" y="0" class="legend" transform="translate(167.3064, 162.3064)" fill="#737373" style="font-family: sans-serif; font-size: 10px;">20</text><text x="60.86489999999999" y="0" class="legend" transform="translate(147.0181, 142.0181)" fill="#737373" style="font-family: sans-serif; font-size: 10px;">30</text><text x="81.1532" y="0" class="legend" transform="translate(126.72979999999998, 121.72979999999998)" fill="#737373" style="font-family: sans-serif; font-size: 10px;">40</text><text x="101.44149999999999" y="0" class="legend" transform="translate(106.44149999999999, 101.44149999999999)" fill="#737373" style="font-family: sans-serif; font-size: 10px;">50</text><text x="121.72979999999998" y="0" class="legend" transform="translate(86.1532, 81.1532)" fill="#737373" style="font-family: sans-serif; font-size: 10px;">60</text><text x="142.01809999999998" y="0" class="legend" transform="translate(65.8649, 60.864900000000006)" fill="#737373" style="font-family: sans-serif; font-size: 10px;">70</text><text x="162.3064" y="0" class="legend" transform="translate(45.576599999999985, 40.576599999999985)" fill="#737373" style="font-family: sans-serif; font-size: 10px;">80</text><text x="182.5947" y="0" class="legend" transform="translate(25.288299999999992, 20.288299999999992)" fill="#737373" style="font-family: sans-serif; font-size: 10px;">90</text><text x="202.88299999999998" y="0" class="legend" transform="translate(5, 0)" fill="#737373" style="font-family: sans-serif; font-size: 10px;">100</text><g class="axis"><line x1="202.88299999999998" y1="202.88299999999998" x2="202.88299999999998" y2="0" class="line" style="stroke: grey; stroke-width: 1px;"></line><text class="legend" text-anchor="start" dy="1.5em" transform="translate(0, -10)" x="202.88299999999998" y="-20" style="font-family: sans-serif; font-size: 10px;">Overall Score</text></g><g class="axis"><line x1="202.88299999999998" y1="202.88299999999998" x2="120.36304964285243" y2="17.54015691709621" class="line" style="stroke: grey; stroke-width: 1px;"></line><text class="legend" text-anchor="start" dy="1.5em" transform="translate(0, -10)" x="108.33684361187655" y="-0.7307522357558085" style="font-family: sans-serif; font-size: 10px;">B. Basic Services</text></g><g class="axis"><line x1="202.88299999999998" y1="202.88299999999998" x2="52.111548372669816" y2="67.12777519009576" class="line" style="stroke: grey; stroke-width: 1px;"></line><text class="legend" text-anchor="start" dy="1.5em" transform="translate(0, -10)" x="30.1385765881257" y="53.74516306291859" style="font-family: sans-serif; font-size: 10px;">D. Infrastructure of ...</text></g><g class="axis"><line x1="202.88299999999998" y1="202.88299999999998" x2="9.929800804490366" y2="140.18870513022753" class="line" style="stroke: grey; stroke-width: 1px;"></line><text class="legend" text-anchor="start" dy="1.5em" transform="translate(0, -10)" x="-18.190610293892398" y="134.0083652427286" style="font-family: sans-serif; font-size: 10px;">E. Ideal Labour ...</text></g><g class="axis"><line x1="202.88299999999998" y1="202.88299999999998" x2="1.1114143019985876" y2="224.0900482131313" class="line" style="stroke: grey; stroke-width: 1px;"></line><text class="legend" text-anchor="start" dy="1.5em" transform="translate(0, -10)" x="-28.2941615653976" y="226.18061747848435" style="font-family: sans-serif; font-size: 10px;">F. New Born ...</text></g><g class="axis"><line x1="202.88299999999998" y1="202.88299999999998" x2="27.18116800400172" y2="304.32449999999994" class="line" style="stroke: grey; stroke-width: 1px;"></line><text class="legend" text-anchor="start" dy="1.5em" transform="translate(0, -10)" x="1.5749185763351505" y="314.32449999999994" style="font-family: sans-serif; font-size: 10px;">G. Post natal ...</text></g><g class="axis"><line x1="202.88299999999998" y1="202.88299999999998" x2="83.63136465914614" y2="367.0187948697724" class="line" style="stroke: grey; stroke-width: 1px;"></line><text class="legend" text-anchor="start" dy="1.5em" transform="translate(0, -10)" x="66.25199482272583" y="383.1991347572714" style="font-family: sans-serif; font-size: 10px;">H. Operation Theatre</text></g><g class="axis"><line x1="202.88299999999998" y1="202.88299999999998" x2="160.70125243182054" y2="401.33251967967664" class="line" style="stroke: grey; stroke-width: 1px;"></line><text class="legend" text-anchor="start" dy="1.5em" transform="translate(0, -10)" x="154.5538131179819" y="420.89547169435275" style="font-family: sans-serif; font-size: 10px;">I. Blood Storage</text></g><g class="axis"><line x1="202.88299999999998" y1="202.88299999999998" x2="245.0647475681794" y2="401.33251967967664" class="line" style="stroke: grey; stroke-width: 1px;"></line><text class="legend" text-anchor="start" dy="1.5em" transform="translate(0, -10)" x="251.21218688201802" y="420.89547169435275" style="font-family: sans-serif; font-size: 10px;">J. New born ...</text></g><g class="axis"><line x1="202.88299999999998" y1="202.88299999999998" x2="322.1346353408538" y2="367.0187948697724" class="line" style="stroke: grey; stroke-width: 1px;"></line><text class="legend" text-anchor="start" dy="1.5em" transform="translate(0, -10)" x="339.5140051772741" y="383.1991347572714" style="font-family: sans-serif; font-size: 10px;">K. Laboratory Services</text></g><g class="axis"><line x1="202.88299999999998" y1="202.88299999999998" x2="378.5848319959982" y2="304.32450000000006" class="line" style="stroke: grey; stroke-width: 1px;"></line><text class="legend" text-anchor="start" dy="1.5em" transform="translate(0, -10)" x="404.1910814236648" y="314.32450000000006" style="font-family: sans-serif; font-size: 10px;">L. Supplies and ...</text></g><g class="axis"><line x1="202.88299999999998" y1="202.88299999999998" x2="404.65458569800137" y2="224.09004821313147" class="line" style="stroke: grey; stroke-width: 1px;"></line><text class="legend" text-anchor="start" dy="1.5em" transform="translate(0, -10)" x="434.06016156539755" y="226.18061747848455" style="font-family: sans-serif; font-size: 10px;">M. Availability of ...</text></g><g class="axis"><line x1="202.88299999999998" y1="202.88299999999998" x2="395.8361991955096" y2="140.18870513022756" class="line" style="stroke: grey; stroke-width: 1px;"></line><text class="legend" text-anchor="start" dy="1.5em" transform="translate(0, -10)" x="423.9566102938924" y="134.00836524272862" style="font-family: sans-serif; font-size: 10px;">N. Services related ...</text></g><g class="axis"><line x1="202.88299999999998" y1="202.88299999999998" x2="353.6544516273301" y2="67.12777519009572" class="line" style="stroke: grey; stroke-width: 1px;"></line><text class="legend" text-anchor="start" dy="1.5em" transform="translate(0, -10)" x="375.62742341187425" y="53.74516306291855" style="font-family: sans-serif; font-size: 10px;">P. Performance Assessment ...</text></g><g class="axis"><line x1="202.88299999999998" y1="202.88299999999998" x2="285.4029503571475" y2="17.540156917096184" class="line" style="stroke: grey; stroke-width: 1px;"></line><text class="legend" text-anchor="start" dy="1.5em" transform="translate(0, -10)" x="297.4291563881234" y="-0.7307522357558369" style="font-family: sans-serif; font-size: 10px;">Q. National Program ...</text></g><polygon class="radar-chart-serie0" points="202.88299999999998,100.42708499999999 162.36570437464053,111.87966404629424 104.27847063572605,114.09908297432261 93.09262965775501,167.20994621909946 92.31217103749523,214.50446242079593 97.28619897040502,263.8493415 157.20962366445295,265.7470094351228 199.5506419421138,218.56051205469444 216.46552271695376,266.7837453368559 278.727040076783,307.27336553717527 314.45366331745885,267.2983525 377.6171932144692,221.24830375257187 303.990476378447,170.03118948823922 202.88299999999998,202.88299999999998 202.88299999999998,202.88299999999998 202.88299999999998,100.42708499999999 " style="stroke-width: 2px; stroke: rgb(31, 119, 180); fill-opacity: 0.5; fill: rgb(31, 119, 180);"></polygon><rect x="162.88299999999998" y="455.76599999999996" width="20px" height="20px" style="width: 20px; height: 20px; fill: rgb(31, 119, 180);"></rect><text x="192.88299999999998" y="470.76599999999996">Phase 1 (Dec 2016)</text><polygon class="radar-chart-serie1" points="202.88299999999998,88.05122199999998 160.13766571499755,106.87540728305582 97.64452676412354,108.12585308268685 78.04228012050524,162.3197912192572 70.31906819641307,216.81603067602725 85.68987805866912,270.54448049999996 142.78017578820965,285.6074406143653 196.6401013599094,232.25352891259215 219.12297281374904,279.28606507667547 279.0847949828056,307.76577292178456 326.75279155717874,274.39925750000003 384.2756555425032,221.9481363436052 311.90155754546294,167.46072339857858 202.88299999999998,202.88299999999998 202.88299999999998,202.88299999999998 202.88299999999998,88.05122199999998 " style="stroke-width: 2px; stroke: rgb(255, 127, 14); fill-opacity: 0.5; fill: rgb(255, 127, 14);"></polygon><rect x="162.88299999999998" y="485.76599999999996" width="20px" height="20px" style="width: 20px; height: 20px; fill: rgb(255, 127, 14);"></rect><text x="192.88299999999998" y="500.76599999999996">Phase 2 (Dec 2017)</text><polygon class="radar-chart-serie2" points="202.88299999999998,89.06563699999998 155.59906844535445,96.68155091349612 96.28758369947754,106.90405605939769 68.5875733599253,159.24777077063837 65.27477855396303,217.34620688135553 75.67487363489722,276.3266459999999 144.09194377695903,283.8019468707978 196.8510100977503,231.26128131419375 222.37096737649887,294.56667809201065 286.4783963739385,317.9421922037105 333.2537593410307,278.1525930000001 378.4242795572612,221.33313194542438 332.9334562577735,160.62704525777337 312.3430738814416,104.32470678800948 254.4579689732172,87.0437230731851 202.88299999999998,89.06563699999998 " style="stroke-width: 2px; stroke: rgb(44, 160, 44); fill-opacity: 0.5; fill: rgb(44, 160, 44);"></polygon><rect x="162.88299999999998" y="515.766" width="20px" height="20px" style="width: 20px; height: 20px; fill: rgb(44, 160, 44);"></rect><text x="192.88299999999998" y="530.766">Phase 3 (Jan 2019)</text><circle class="radar-chart-series0" r="5" alt="50.5" cx="202.88299999999998" cy="100.42708499999999" style="fill: rgb(31, 119, 180); fill-opacity: 0.9;"></circle><circle class="radar-chart-series0" r="5" alt="49.1" cx="162.36570437464053" cy="111.87966404629424" style="fill: rgb(31, 119, 180); fill-opacity: 0.9;"></circle><circle class="radar-chart-series0" r="5" alt="65.4" cx="104.27847063572605" cy="114.09908297432261" style="fill: rgb(31, 119, 180); fill-opacity: 0.9;"></circle><circle class="radar-chart-series0" r="5" alt="56.9" cx="93.09262965775501" cy="167.20994621909946" style="fill: rgb(31, 119, 180); fill-opacity: 0.9;"></circle><circle class="radar-chart-series0" r="5" alt="54.8" cx="92.31217103749523" cy="214.50446242079593" style="fill: rgb(31, 119, 180); fill-opacity: 0.9;"></circle><circle class="radar-chart-series0" r="5" alt="60.1" cx="97.28619897040502" cy="263.8493415" style="fill: rgb(31, 119, 180); fill-opacity: 0.9;"></circle><circle class="radar-chart-series0" r="5" alt="38.3" cx="157.20962366445295" cy="265.7470094351228" style="fill: rgb(31, 119, 180); fill-opacity: 0.9;"></circle><circle class="radar-chart-series0" r="5" alt="7.9" cx="199.5506419421138" cy="218.56051205469444" style="fill: rgb(31, 119, 180); fill-opacity: 0.9;"></circle><circle class="radar-chart-series0" r="5" alt="32.2" cx="216.46552271695376" cy="266.7837453368559" style="fill: rgb(31, 119, 180); fill-opacity: 0.9;"></circle><circle class="radar-chart-series0" r="5" alt="63.6" cx="278.727040076783" cy="307.27336553717527" style="fill: rgb(31, 119, 180); fill-opacity: 0.9;"></circle><circle class="radar-chart-series0" r="5" alt="63.5" cx="314.45366331745885" cy="267.2983525" style="fill: rgb(31, 119, 180); fill-opacity: 0.9;"></circle><circle class="radar-chart-series0" r="5" alt="86.6" cx="377.6171932144692" cy="221.24830375257187" style="fill: rgb(31, 119, 180); fill-opacity: 0.9;"></circle><circle class="radar-chart-series0" r="5" alt="52.4" cx="303.990476378447" cy="170.03118948823922" style="fill: rgb(31, 119, 180); fill-opacity: 0.9;"></circle><circle class="radar-chart-series0" r="5" alt="0" cx="202.88299999999998" cy="202.88299999999998" style="fill: rgb(82, 70, 70); fill-opacity: 0.9;"></circle><circle class="radar-chart-series0" r="5" alt="0" cx="202.88299999999998" cy="202.88299999999998" style="fill: rgb(82, 70, 70); fill-opacity: 0.9;"></circle><circle class="radar-chart-series1" r="5" alt="56.6" cx="202.88299999999998" cy="88.05122199999998" style="fill: rgb(255, 127, 14); fill-opacity: 0.9;"></circle><circle class="radar-chart-series1" r="5" alt="51.8" cx="160.13766571499755" cy="106.87540728305582" style="fill: rgb(255, 127, 14); fill-opacity: 0.9;"></circle><circle class="radar-chart-series1" r="5" alt="69.8" cx="97.64452676412354" cy="108.12585308268685" style="fill: rgb(255, 127, 14); fill-opacity: 0.9;"></circle><circle class="radar-chart-series1" r="5" alt="64.7" cx="78.04228012050524" cy="162.3197912192572" style="fill: rgb(255, 127, 14); fill-opacity: 0.9;"></circle><circle class="radar-chart-series1" r="5" alt="65.7" cx="70.31906819641307" cy="216.81603067602725" style="fill: rgb(255, 127, 14); fill-opacity: 0.9;"></circle><circle class="radar-chart-series1" r="5" alt="66.7" cx="85.68987805866912" cy="270.54448049999996" style="fill: rgb(255, 127, 14); fill-opacity: 0.9;"></circle><circle class="radar-chart-series1" r="5" alt="50.4" cx="142.78017578820965" cy="285.6074406143653" style="fill: rgb(255, 127, 14); fill-opacity: 0.9;"></circle><circle class="radar-chart-series1" r="5" alt="14.8" cx="196.6401013599094" cy="232.25352891259215" style="fill: rgb(255, 127, 14); fill-opacity: 0.9;"></circle><circle class="radar-chart-series1" r="5" alt="38.5" cx="219.12297281374904" cy="279.28606507667547" style="fill: rgb(255, 127, 14); fill-opacity: 0.9;"></circle><circle class="radar-chart-series1" r="5" alt="63.9" cx="279.0847949828056" cy="307.76577292178456" style="fill: rgb(255, 127, 14); fill-opacity: 0.9;"></circle><circle class="radar-chart-series1" r="5" alt="70.5" cx="326.75279155717874" cy="274.39925750000003" style="fill: rgb(255, 127, 14); fill-opacity: 0.9;"></circle><circle class="radar-chart-series1" r="5" alt="89.9" cx="384.2756555425032" cy="221.9481363436052" style="fill: rgb(255, 127, 14); fill-opacity: 0.9;"></circle><circle class="radar-chart-series1" r="5" alt="56.5" cx="311.90155754546294" cy="167.46072339857858" style="fill: rgb(255, 127, 14); fill-opacity: 0.9;"></circle><circle class="radar-chart-series1" r="5" alt="0" cx="202.88299999999998" cy="202.88299999999998" style="fill: rgb(82, 70, 70); fill-opacity: 0.9;"></circle><circle class="radar-chart-series1" r="5" alt="0" cx="202.88299999999998" cy="202.88299999999998" style="fill: rgb(82, 70, 70); fill-opacity: 0.9;"></circle><circle class="radar-chart-series2" r="5" alt="56.1" cx="202.88299999999998" cy="89.06563699999998" style="fill: rgb(44, 160, 44); fill-opacity: 0.9;"></circle><circle class="radar-chart-series2" r="5" alt="57.3" cx="155.59906844535445" cy="96.68155091349612" style="fill: rgb(44, 160, 44); fill-opacity: 0.9;"></circle><circle class="radar-chart-series2" r="5" alt="70.7" cx="96.28758369947754" cy="106.90405605939769" style="fill: rgb(44, 160, 44); fill-opacity: 0.9;"></circle><circle class="radar-chart-series2" r="5" alt="69.6" cx="68.5875733599253" cy="159.24777077063837" style="fill: rgb(44, 160, 44); fill-opacity: 0.9;"></circle><circle class="radar-chart-series2" r="5" alt="68.2" cx="65.27477855396303" cy="217.34620688135553" style="fill: rgb(44, 160, 44); fill-opacity: 0.9;"></circle><circle class="radar-chart-series2" r="5" alt="72.4" cx="75.67487363489722" cy="276.3266459999999" style="fill: rgb(44, 160, 44); fill-opacity: 0.9;"></circle><circle class="radar-chart-series2" r="5" alt="49.3" cx="144.09194377695903" cy="283.8019468707978" style="fill: rgb(44, 160, 44); fill-opacity: 0.9;"></circle><circle class="radar-chart-series2" r="5" alt="14.3" cx="196.8510100977503" cy="231.26128131419375" style="fill: rgb(44, 160, 44); fill-opacity: 0.9;"></circle><circle class="radar-chart-series2" r="5" alt="46.2" cx="222.37096737649887" cy="294.56667809201065" style="fill: rgb(44, 160, 44); fill-opacity: 0.9;"></circle><circle class="radar-chart-series2" r="5" alt="70.1" cx="286.4783963739385" cy="317.9421922037105" style="fill: rgb(44, 160, 44); fill-opacity: 0.9;"></circle><circle class="radar-chart-series2" r="5" alt="74.2" cx="333.2537593410307" cy="278.1525930000001" style="fill: rgb(44, 160, 44); fill-opacity: 0.9;"></circle><circle class="radar-chart-series2" r="5" alt="87" cx="378.4242795572612" cy="221.33313194542438" style="fill: rgb(44, 160, 44); fill-opacity: 0.9;"></circle><circle class="radar-chart-series2" r="5" alt="67.4" cx="332.9334562577735" cy="160.62704525777337" style="fill: rgb(44, 160, 44); fill-opacity: 0.9;"></circle><circle class="radar-chart-series2" r="5" alt="72.6" cx="312.3430738814416" cy="104.32470678800948" style="fill: rgb(44, 160, 44); fill-opacity: 0.9;"></circle><circle class="radar-chart-series2" r="5" alt="62.5" cx="254.4579689732172" cy="87.0437230731851" style="fill: rgb(44, 160, 44); fill-opacity: 0.9;"></circle></g></svg>